<svg width="44" height="44" viewBox="0 0 44 44" fill="none" xmlns="http://www.w3.org/2000/svg">
<path fill-rule="evenodd" clip-rule="evenodd" d="M43.9777 17.4772L44 21.4311L38.5449 19.8051L43.9777 17.4772ZM36.0936 16.562L38.9059 14.394L40.2919 17.024L36.4413 18.3213L36.0936 16.562ZM26.9393 17.8281L22.1394 13.9275L19.1355 14.5184L14.1572 4.83351C21.1901 1.76367 24.2563 3.22084 29.2881 5.27777C33.2992 6.92154 35.0819 9.77369 36.517 14.5628L28.8959 15.7223L26.9393 17.8281ZM27.0329 8.47645C26.721 8.32096 24.6575 8.28541 24.3945 8.47645C24.1316 8.66748 23.3115 10.7466 23.3605 11.0754C23.4096 11.4041 25.0497 12.7947 25.3438 12.8524C25.638 12.9102 27.7817 11.6929 27.9154 11.3153C28.0491 10.9377 27.3405 8.65415 27.0329 8.47645ZM34.1638 17.0374L34.3421 19.623L29.5644 19.152L30.2017 17.7793L34.1638 17.0374ZM20.0803 16.7886L25.2992 22.4262L27.0107 20.9646L36.5348 20.8047C37.288 25.7271 36.6686 30.8939 32.2429 34.7634C29.3817 37.2601 27.0775 40.5388 18.2709 40.9075C10.0436 41.2718 6.59849 37.2068 2.67204 33.2218C-1.02265 29.4855 -0.0555213 25.1407 0.728876 18.3079C1.3974 12.4926 6.73665 8.57419 13.4263 6.91265L17.482 17.4905L20.0803 16.7886ZM27.8708 28.0373C27.9109 28.3482 29.4173 29.7254 29.6981 29.8143C29.9789 29.9031 32.0513 28.7925 32.185 28.4371C32.3187 28.0817 31.7393 25.8781 31.4363 25.7182C31.1332 25.5583 29.2079 25.4605 28.9315 25.616C28.6552 25.7715 27.8574 27.7263 27.8931 28.0373H27.8708ZM6.53609 31.8535C6.78122 32.0312 9.23246 31.7468 9.50433 31.4492C9.77619 31.1515 10.0391 28.7836 9.81185 28.4993C9.58455 28.215 7.70823 27.3886 7.39626 27.4464C7.08428 27.5041 5.50212 29.1079 5.42189 29.4278C5.34167 29.7477 6.28651 31.6713 6.53609 31.8535ZM11.1533 16.6109C11.0642 16.1977 9.51324 14.2119 9.14332 14.0963C8.77341 13.9808 6.13498 14.8161 5.87203 15.1137C5.60908 15.4114 5.5244 18.0325 5.6893 18.3657C5.8542 18.6989 8.66199 19.7918 9.1255 19.623C9.589 19.4541 11.2425 17.024 11.1533 16.6109ZM17.3661 36.4293C17.4954 36.7403 19.9867 37.8821 20.419 37.7621C20.8514 37.6422 22.4781 35.5186 22.4201 35.1365C22.3622 34.7545 21.0564 32.8708 20.731 32.7464C20.4057 32.622 17.9723 33.2395 17.7048 33.4972C17.4374 33.7549 17.2324 36.1184 17.3661 36.4293ZM14.8347 25.8515C14.955 26.2202 17.7271 27.7485 18.2352 27.6285C18.7433 27.5086 20.8023 25.2251 20.7667 24.7808C20.731 24.3366 19.3984 22.0531 19.033 21.8798C18.6675 21.7065 15.8107 22.2085 15.4675 22.484C15.1244 22.7594 14.7099 25.4783 14.8347 25.8515Z" fill="#383874"/>
</svg>
