<svg width="122" height="37" viewBox="0 0 122 37" fill="none" xmlns="http://www.w3.org/2000/svg">
<path d="M121.272 13.0366L121.919 13.2794C122 13.3198 122.02 13.421 121.98 13.4816C121.96 13.5019 121.939 13.5221 121.919 13.5423L121.272 13.7851C118.622 14.7763 116.639 17.7499 116.174 21.4316L115.527 26.5697C115.507 26.7113 115.345 26.7113 115.324 26.5697L114.677 21.4316C114.212 17.7499 112.209 14.7763 109.58 13.7851L108.932 13.5423C108.851 13.5019 108.831 13.4007 108.892 13.3198C108.912 13.2996 108.912 13.2794 108.932 13.2794L109.58 13.0366C112.229 12.0454 114.212 9.07176 114.677 5.39011L115.304 0.272217C115.324 0.130615 115.486 0.130615 115.507 0.272217L116.174 5.41034C116.639 9.07176 118.622 12.0454 121.272 13.0366Z" fill="white"/>
<path d="M54.2134 25.5785L60.4034 15.2213C60.5248 15.0393 60.4641 14.7763 60.2821 14.6549C60.2214 14.6145 60.1405 14.5942 60.0798 14.5942H53.9504C53.8291 14.5942 53.6875 14.6549 53.6268 14.7561L50.6936 19.6717L47.7402 14.7561C47.6593 14.6549 47.5379 14.5942 47.4165 14.5942H41.3074C41.0849 14.5942 40.9028 14.7763 40.9028 14.9988C40.9028 15.0797 40.9231 15.1404 40.9635 15.2011L47.1536 25.5583L40.9635 35.9154C40.8422 36.0975 40.9029 36.3605 41.0849 36.4818C41.1456 36.5223 41.2265 36.5425 41.2872 36.5425H47.3963C47.5379 36.5425 47.6593 36.4818 47.72 36.3605L50.6531 31.4449L53.5863 36.3605C53.6672 36.4616 53.7886 36.5425 53.91 36.5425H60.0393C60.2618 36.5425 60.4439 36.3605 60.4439 36.1379C60.4439 36.057 60.4237 35.9963 60.3832 35.9357L54.2134 25.5785Z" fill="white"/>
<path d="M11.6316 14.5742H0.34389C0.161831 14.5742 0 14.736 0 14.9181V36.1988C0 36.3809 0.141602 36.5427 0.34389 36.5427H11.6316C17.7002 36.5427 22.6158 32.9218 22.6158 25.5585C22.6158 18.1952 17.7002 14.5742 11.6316 14.5742ZM11.3888 30.7977H6.41254V20.8047H11.3686C13.9579 20.8047 16.0415 22.5646 16.0415 25.8012C16.0415 29.0378 13.9579 30.7977 11.3888 30.7977Z" fill="white"/>
<path d="M95.116 14.5742H82.21C82.129 14.5742 82.0684 14.6349 82.0684 14.7158V36.4011C82.0684 36.482 82.129 36.5427 82.21 36.5427H88.3393C88.4202 36.5427 88.4809 36.482 88.4809 36.4011V20.9261H95.0957C95.1766 20.9261 95.2373 20.8654 95.2373 20.7845V14.7158C95.2576 14.6349 95.1969 14.5742 95.116 14.5742Z" fill="white"/>
<path d="M80.4502 29.806C80.4299 29.7656 80.4299 29.7251 80.4097 29.6644C80.4097 29.6644 80.4097 29.6644 80.4097 29.6442C79.7624 27.7427 78.225 26.2862 76.3033 25.74L75.7368 25.5782C75.6964 25.558 75.6559 25.5175 75.6762 25.4568C75.6762 25.4366 75.7166 25.4164 75.7368 25.3962L76.3033 25.2343C78.2857 24.6477 79.8433 23.1103 80.4704 21.1481C80.4906 21.0267 80.5109 20.9256 80.5311 20.8042V14.9378C80.5311 14.7356 80.3692 14.594 80.1872 14.594H74.4422C74.2399 14.594 74.0983 14.7558 74.0983 14.9378V16.2325C72.8643 15.0795 71.1651 14.4321 68.8793 14.4321C62.8106 14.4321 57.895 18.0733 57.895 25.5378C57.895 33.0022 62.8106 36.6434 68.8793 36.6434C71.1449 36.6434 72.8441 35.9961 74.0983 34.843V36.2186C74.0983 36.4006 74.2601 36.5625 74.4422 36.5625H80.167C80.349 36.5625 80.5108 36.4006 80.5108 36.2186V30.1702C80.5108 30.0488 80.4906 29.9274 80.4502 29.806ZM68.151 30.8175C65.5213 30.8175 63.377 28.9767 63.377 25.5378C63.377 22.0989 65.5213 20.258 68.151 20.258C70.7808 20.258 72.925 22.0989 72.925 25.5378C72.925 28.9767 70.7808 30.8175 68.151 30.8175Z" fill="white"/>
<path d="M43.3708 22.7664C42.2582 17.8103 38.1316 14.4321 32.7507 14.4321C28.5835 14.4321 25.1649 16.455 23.3038 19.6916C23.2027 19.8939 23.1622 20.1164 23.2027 20.3187C23.7286 22.4832 25.3874 24.2027 27.5316 24.8297L28.0981 24.9916C28.1385 25.0118 28.179 25.0523 28.1587 25.113C28.1587 25.1332 28.1183 25.1534 28.0981 25.1736L27.5316 25.3355C25.2458 25.9828 23.405 27.9248 23.1015 30.332C23.0813 30.595 23.1015 30.8579 23.1824 31.1209C25.003 34.4991 28.4824 36.6232 32.7709 36.6232C37.5854 36.6232 41.3884 33.9327 42.9258 29.8263C43.0067 29.624 42.9056 29.4015 42.7033 29.3205C42.6628 29.3003 42.6223 29.3003 42.5617 29.3003H36.6548C36.5537 29.3003 36.4526 29.3408 36.3919 29.4217C35.5018 30.2915 34.2678 30.7973 32.7507 30.7973C30.6873 30.7973 29.1095 29.8667 28.2801 28.2889H43.0674C43.2494 28.2889 43.4113 28.1675 43.4517 27.9854C43.6136 27.1763 43.6945 26.3469 43.6945 25.5175C43.6742 24.587 43.5731 23.6767 43.3708 22.7664ZM28.2599 22.7664C29.069 21.1886 30.6469 20.258 32.7305 20.258C34.814 20.258 36.3716 21.1886 37.201 22.7664H28.2599Z" fill="white"/>
<path d="M105.372 29.1592C105.372 29.7458 104.886 30.2313 104.3 30.2313C103.713 30.2313 103.227 29.7458 103.227 29.1592V26.8733H111.117C111.198 26.8733 111.258 26.8127 111.258 26.7317V20.6226C111.258 20.5417 111.198 20.481 111.117 20.481H103.227V14.736C103.227 14.6551 103.167 14.5944 103.086 14.5742H96.9565C96.8756 14.5742 96.8149 14.6551 96.8149 14.736V29.1592C96.997 33.2859 100.497 36.482 104.623 36.3202C108.507 36.1584 111.602 33.0431 111.784 29.1592H105.372Z" fill="white"/>
</svg>
