<svg width="21" height="18" viewBox="0 0 21 18" fill="none" xmlns="http://www.w3.org/2000/svg">
<path d="M14.3034 2.55011C13.5434 2.54999 12.8137 2.84824 12.2713 3.38068C11.729 3.91313 11.4173 4.63721 11.4034 5.39711L11.3754 6.97211C11.3738 7.05668 11.3543 7.13994 11.3182 7.21644C11.2821 7.29294 11.2303 7.36094 11.1661 7.41599C11.1019 7.47105 11.0267 7.5119 10.9456 7.53588C10.8645 7.55985 10.7793 7.56641 10.6954 7.55511L9.13444 7.34311C7.08044 7.06311 5.11244 6.11711 3.22444 4.54411C2.62644 7.85411 3.79444 10.1471 6.60744 11.9161L8.35444 13.0141C8.43744 13.0663 8.5064 13.138 8.55528 13.223C8.60417 13.308 8.63148 13.4036 8.63483 13.5016C8.63819 13.5996 8.61748 13.6969 8.57453 13.785C8.53158 13.8731 8.46768 13.9494 8.38844 14.0071L6.79644 15.1701C7.74344 15.2291 8.64244 15.1871 9.38844 15.0391C14.1064 14.0971 17.2434 10.5471 17.2434 4.69111C17.2434 4.21311 16.2314 2.55011 14.3034 2.55011ZM9.40344 5.36011C9.42089 4.39616 9.72233 3.45878 10.27 2.66534C10.8177 1.87189 11.5872 1.25763 12.4824 0.899481C13.3775 0.541329 14.3583 0.455194 15.3022 0.651862C16.246 0.848529 17.1109 1.31926 17.7884 2.00511C18.4994 2.00011 19.1044 2.18011 20.4574 1.36011C20.1224 3.00011 19.9574 3.71211 19.2434 4.69111C19.2434 12.3331 14.5464 16.0491 9.78044 17.0001C6.51244 17.6521 1.76044 16.5811 0.398438 15.1591C1.09244 15.1051 3.91244 14.8021 5.54244 13.6091C4.16344 12.7001 -1.32556 9.47011 2.28144 0.786115C3.97444 2.76311 5.69144 4.10911 7.43144 4.82311C8.58944 5.29811 8.87344 5.28811 9.40444 5.36111L9.40344 5.36011Z" fill="black"/>
</svg>
