<svg width="23" height="20" viewBox="0 0 23 20" fill="none" xmlns="http://www.w3.org/2000/svg">
<path d="M10.1057 5.81522L10.8567 2.27922C10.9114 2.02226 11.0161 1.7786 11.1649 1.56213C11.3138 1.34566 11.5038 1.16064 11.7242 1.01763C11.9445 0.874625 12.1909 0.77643 12.4492 0.728659C12.7076 0.680887 12.9728 0.684475 13.2297 0.739217L16.4257 1.41922C16.7203 1.09204 17.1147 0.87122 17.5476 0.791012C17.9805 0.710804 18.4278 0.775689 18.8201 0.975605C19.2123 1.17552 19.5277 1.49929 19.7172 1.8967C19.9067 2.29411 19.9598 2.74295 19.8682 3.1736C19.7766 3.60425 19.5455 3.99264 19.2106 4.27853C18.8758 4.56443 18.456 4.73184 18.0163 4.75482C17.5766 4.77779 17.1416 4.65504 16.7788 4.4056C16.416 4.15616 16.1457 3.79398 16.0097 3.37522L12.8137 2.69522L12.1477 5.83022C13.9317 5.96722 15.7047 6.56022 17.3107 7.53022C17.7879 7.26487 18.3253 7.12638 18.8713 7.128C19.4174 7.12963 19.9538 7.2713 20.4295 7.53947C20.9052 7.80765 21.3041 8.19336 21.5881 8.65973C21.8721 9.1261 22.0317 9.65754 22.0517 10.2032V10.2242C22.0594 10.7133 21.9545 11.1977 21.7452 11.6398C21.5359 12.0819 21.2278 12.4701 20.8447 12.7742C20.8429 12.8153 20.8403 12.8563 20.8367 12.8972C20.8367 16.8952 16.3867 19.9272 11.0377 19.9272C5.7057 19.9272 1.3297 16.9032 1.3327 12.9742C1.32834 12.9139 1.325 12.8536 1.3227 12.7932C0.676814 12.3084 0.238701 11.5968 0.0966511 10.8018C-0.045399 10.0068 0.119174 9.18752 0.557203 8.50904C0.995233 7.83057 1.67416 7.34334 2.45715 7.14556C3.24015 6.94778 4.06901 7.05414 4.7767 7.44322C6.3918 6.46986 8.22238 5.91062 10.1057 5.81522ZM19.3917 11.3412C19.7997 11.1382 20.0557 10.7212 20.0527 10.2662C20.0423 10.0374 19.9662 9.81645 19.8335 9.62976C19.7008 9.44308 19.5171 9.29858 19.3044 9.21355C19.0918 9.12852 18.8591 9.10657 18.6343 9.15031C18.4094 9.19406 18.202 9.30165 18.0367 9.46022L17.4517 10.0202L16.7817 9.56522C15.1667 8.46722 13.3297 7.84022 11.5517 7.80122H10.5457C8.6707 7.83022 6.8947 8.40122 5.3087 9.47622L4.6457 9.92622L4.0617 9.37622C3.93576 9.25801 3.78563 9.16857 3.62171 9.11412C3.45779 9.05966 3.284 9.04148 3.11236 9.06083C2.94072 9.08019 2.77533 9.13661 2.62765 9.2262C2.47998 9.31579 2.35353 9.4364 2.25708 9.57969C2.16062 9.72298 2.09646 9.88552 2.06903 10.0561C2.04161 10.2266 2.05157 10.4011 2.09823 10.5674C2.1449 10.7337 2.22715 10.8878 2.33929 11.0192C2.45143 11.1506 2.59078 11.256 2.7477 11.3282L3.3807 11.6182L3.3267 12.3132C3.3137 12.4832 3.3137 12.6522 3.3297 12.8972C3.3297 15.6072 6.6857 17.9272 11.0377 17.9272C15.4087 17.9272 18.8367 15.5912 18.8397 12.8212C18.8527 12.6521 18.8527 12.4823 18.8397 12.3132L18.7877 11.6412L19.3917 11.3412ZM6.0037 11.5002C6.0037 11.1024 6.16173 10.7209 6.44304 10.4396C6.72434 10.1583 7.10587 10.0002 7.5037 10.0002C7.90152 10.0002 8.28305 10.1583 8.56436 10.4396C8.84566 10.7209 9.0037 11.1024 9.0037 11.5002C9.0037 11.898 8.84566 12.2796 8.56436 12.5609C8.28305 12.8422 7.90152 13.0002 7.5037 13.0002C7.10587 13.0002 6.72434 12.8422 6.44304 12.5609C6.16173 12.2796 6.0037 11.898 6.0037 11.5002ZM13.0037 11.5002C13.0037 11.1024 13.1617 10.7209 13.443 10.4396C13.7243 10.1583 14.1059 10.0002 14.5037 10.0002C14.9015 10.0002 15.2831 10.1583 15.5644 10.4396C15.8457 10.7209 16.0037 11.1024 16.0037 11.5002C16.0037 11.898 15.8457 12.2796 15.5644 12.5609C15.2831 12.8422 14.9015 13.0002 14.5037 13.0002C14.1059 13.0002 13.7243 12.8422 13.443 12.5609C13.1617 12.2796 13.0037 11.898 13.0037 11.5002ZM11.0197 16.6032C9.6227 16.6032 8.2527 16.2332 7.1377 15.3932C7.07034 15.3119 7.03575 15.2084 7.04069 15.1029C7.04564 14.9974 7.08975 14.8976 7.16442 14.8229C7.23908 14.7483 7.33891 14.7042 7.44439 14.6992C7.54986 14.6943 7.65338 14.7289 7.7347 14.7962C8.6797 15.4892 9.8577 15.7862 11.0037 15.7862C12.1497 15.7862 13.3337 15.5112 14.2877 14.8272C14.3429 14.7734 14.4112 14.7351 14.4859 14.716C14.5606 14.697 14.639 14.698 14.7132 14.7189C14.7874 14.7398 14.8547 14.7798 14.9086 14.835C14.9624 14.8902 15.0007 14.9585 15.0197 15.0332C15.0359 15.1081 15.0335 15.1858 15.0128 15.2595C14.9921 15.3333 14.9536 15.4008 14.9007 15.4562C14.2167 16.2532 12.4167 16.6032 11.0197 16.6032Z" fill="black"/>
</svg>
