<svg width="36" height="53" viewBox="0 0 36 53" fill="none" xmlns="http://www.w3.org/2000/svg">
<path d="M25.1135 26.9639L25.9015 26.6709C26 26.6221 26.0246 26.5 25.9754 26.4267C25.9508 26.4023 25.9261 26.3779 25.9015 26.3535L25.1135 26.0605C21.8876 24.864 19.4744 21.2745 18.908 16.8304L18.12 10.6282C18.0953 10.4573 17.8983 10.4573 17.8737 10.6282L17.0857 16.8304C16.5194 21.2745 14.0815 24.864 10.8802 26.0605L10.0922 26.3535C9.9937 26.4023 9.96908 26.5244 10.043 26.6221C10.0676 26.6465 10.0676 26.6709 10.0922 26.6709L10.8802 26.9639C14.1061 28.1604 16.5194 31.7499 17.0857 36.194L17.8491 42.3718C17.8737 42.5427 18.0707 42.5427 18.0954 42.3718L18.908 36.1696C19.4744 31.7499 21.8876 28.1604 25.1135 26.9639Z" fill="#FAF5FF"/>
</svg>
