<svg width="74" height="53" viewBox="0 0 74 53" fill="none" xmlns="http://www.w3.org/2000/svg">
<path d="M18.5013 26.761L18.9446 26.5961C19 26.5687 19.0139 26.5 18.9861 26.4588C18.9723 26.4451 18.9584 26.4313 18.9446 26.4176L18.5013 26.2528C16.6868 25.5797 15.3293 23.5607 15.0107 21.0609L14.5675 17.5721C14.5536 17.476 14.4428 17.476 14.429 17.5721L13.9857 21.0609C13.6671 23.5607 12.2958 25.5797 10.4951 26.2528L10.0519 26.4176C9.99646 26.4451 9.98261 26.5137 10.0242 26.5687C10.038 26.5824 10.038 26.5961 10.0519 26.5961L10.4951 26.761C12.3097 27.434 13.6671 29.4531 13.9857 31.9529L14.4151 35.4279C14.429 35.524 14.5398 35.524 14.5536 35.4279L15.0107 31.9391C15.3293 29.4531 16.6868 27.434 18.5013 26.761Z" fill="#FAF5FF"/>
<path d="M44.1135 26.9639L44.9015 26.6709C45 26.6221 45.0246 26.5 44.9754 26.4267C44.9508 26.4023 44.9261 26.3779 44.9015 26.3535L44.1135 26.0605C40.8876 24.864 38.4744 21.2745 37.908 16.8304L37.12 10.6282C37.0953 10.4573 36.8983 10.4573 36.8737 10.6282L36.0857 16.8304C35.5194 21.2745 33.0815 24.864 29.8802 26.0605L29.0922 26.3535C28.9937 26.4023 28.9691 26.5244 29.043 26.6221C29.0676 26.6465 29.0676 26.6709 29.0922 26.6709L29.8802 26.9639C33.1061 28.1604 35.5194 31.7499 36.0857 36.194L36.8491 42.3718C36.8737 42.5427 37.0707 42.5427 37.0954 42.3718L37.908 36.1696C38.4744 31.7499 40.8876 28.1604 44.1135 26.9639Z" fill="#FAF5FF"/>
<path d="M63.5013 26.761L63.9446 26.5961C64 26.5687 64.0139 26.5 63.9861 26.4588C63.9723 26.4451 63.9584 26.4313 63.9446 26.4176L63.5013 26.2528C61.6868 25.5797 60.3293 23.5607 60.0107 21.0609L59.5675 17.5721C59.5536 17.476 59.4428 17.476 59.429 17.5721L58.9857 21.0609C58.6671 23.5607 57.2958 25.5797 55.4951 26.2528L55.0519 26.4176C54.9965 26.4451 54.9826 26.5137 55.0242 26.5687C55.038 26.5824 55.038 26.5961 55.0519 26.5961L55.4951 26.761C57.3097 27.434 58.6671 29.4531 58.9857 31.9529L59.4151 35.4279C59.429 35.524 59.5398 35.524 59.5536 35.4279L60.0107 31.9391C60.3293 29.4531 61.6868 27.434 63.5013 26.761Z" fill="#FAF5FF"/>
</svg>
