<svg width="84" height="53" viewBox="0 0 84 53" fill="none" xmlns="http://www.w3.org/2000/svg">
<path d="M14.723 26.645L14.9692 26.5534C15 26.5382 15.0077 26.5 14.9923 26.4771C14.9846 26.4695 14.9769 26.4618 14.9692 26.4542L14.723 26.3626C13.7149 25.9887 12.9607 24.867 12.7837 23.4783L12.5375 21.5401C12.5298 21.4866 12.4682 21.4866 12.4605 21.5401L12.2143 23.4783C12.0373 24.867 11.2755 25.9887 10.2751 26.3626L10.0288 26.4542C9.99803 26.4695 9.99034 26.5076 10.0134 26.5382C10.0211 26.5458 10.0211 26.5534 10.0288 26.5534L10.2751 26.645C11.2832 27.0189 12.0373 28.1406 12.2143 29.5294L12.4528 31.4599C12.4605 31.5134 12.5221 31.5134 12.5298 31.4599L12.7837 29.5217C12.9607 28.1406 13.7149 27.0189 14.723 26.645Z" fill="#FAF5FF"/>
<path d="M28.5013 26.761L28.9446 26.5961C29 26.5687 29.0139 26.5 28.9861 26.4588C28.9723 26.4451 28.9584 26.4313 28.9446 26.4176L28.5013 26.2528C26.6868 25.5797 25.3293 23.5607 25.0107 21.0609L24.5675 17.5721C24.5536 17.476 24.4428 17.476 24.429 17.5721L23.9857 21.0609C23.6671 23.5607 22.2958 25.5797 20.4951 26.2528L20.0519 26.4176C19.9965 26.4451 19.9826 26.5137 20.0242 26.5687C20.038 26.5824 20.038 26.5961 20.0519 26.5961L20.4951 26.761C22.3097 27.434 23.6671 29.4531 23.9857 31.9529L24.4151 35.4279C24.429 35.524 24.5398 35.524 24.5536 35.4279L25.0107 31.9391C25.3293 29.4531 26.6868 27.434 28.5013 26.761Z" fill="#FAF5FF"/>
<path d="M49.1135 26.9639L49.9015 26.6709C50 26.6221 50.0246 26.5 49.9754 26.4267C49.9508 26.4023 49.9261 26.3779 49.9015 26.3535L49.1135 26.0605C45.8876 24.864 43.4744 21.2745 42.908 16.8304L42.12 10.6282C42.0953 10.4573 41.8983 10.4573 41.8737 10.6282L41.0857 16.8304C40.5194 21.2745 38.0815 24.864 34.8802 26.0605L34.0922 26.3535C33.9937 26.4023 33.9691 26.5244 34.043 26.6221C34.0676 26.6465 34.0676 26.6709 34.0922 26.6709L34.8802 26.9639C38.1061 28.1604 40.5194 31.7499 41.0857 36.194L41.8491 42.3718C41.8737 42.5427 42.0707 42.5427 42.0954 42.3718L42.908 36.1696C43.4744 31.7499 45.8876 28.1604 49.1135 26.9639Z" fill="#FAF5FF"/>
<path d="M63.5013 26.761L63.9446 26.5961C64 26.5687 64.0139 26.5 63.9861 26.4588C63.9723 26.4451 63.9584 26.4313 63.9446 26.4176L63.5013 26.2528C61.6868 25.5797 60.3293 23.5607 60.0107 21.0609L59.5675 17.5721C59.5536 17.476 59.4428 17.476 59.429 17.5721L58.9857 21.0609C58.6671 23.5607 57.2958 25.5797 55.4951 26.2528L55.0519 26.4176C54.9965 26.4451 54.9826 26.5137 55.0242 26.5687C55.038 26.5824 55.038 26.5961 55.0519 26.5961L55.4951 26.761C57.3097 27.434 58.6671 29.4531 58.9857 31.9529L59.4151 35.4279C59.429 35.524 59.5398 35.524 59.5536 35.4279L60.0107 31.9391C60.3293 29.4531 61.6868 27.434 63.5013 26.761Z" fill="#FAF5FF"/>
<path d="M73.723 26.645L73.9692 26.5534C74 26.5382 74.0077 26.5 73.9923 26.4771C73.9846 26.4695 73.9769 26.4618 73.9692 26.4542L73.723 26.3626C72.7149 25.9887 71.9607 24.867 71.7837 23.4783L71.5375 21.5401C71.5298 21.4866 71.4682 21.4866 71.4605 21.5401L71.2143 23.4783C71.0373 24.867 70.2755 25.9887 69.2751 26.3626L69.0288 26.4542C68.998 26.4695 68.9903 26.5076 69.0134 26.5382C69.0211 26.5458 69.0211 26.5534 69.0288 26.5534L69.2751 26.645C70.2832 27.0189 71.0373 28.1406 71.2143 29.5294L71.4528 31.4599C71.4605 31.5134 71.5221 31.5134 71.5298 31.4599L71.7837 29.5217C71.9607 28.1406 72.7149 27.0189 73.723 26.645Z" fill="#FAF5FF"/>
</svg>
